Coordinates
version=1
nRows=32
nColumns=12
inDegrees=yes

Units are S.I. units (second, meters, Newtons, ...)
Angles are in degrees

endheader
time	SC_y	SC_z	SC_x	AC_y	AC_z	AC_x	GH_y	GH_z	GH_yy	EL_x	PS_y
       0.0              -14.76          21.13          12.02          56.46          9.611         0.1589        -0.7281           1.21         0.6175          91.89           82.0
   0.02628              -14.76          21.13          12.03          56.46          9.608         0.1572        -0.7114          1.214         0.6061          91.89          82.01
   0.05257              -14.76          21.13          12.04          56.45          9.605         0.1553        -0.6938          1.218          0.594          91.89          82.01
   0.07885              -14.76          21.13          12.05          56.45          9.602         0.1534         -0.675          1.222         0.5811          91.89          82.02
    0.1051              -14.76          21.13          12.06          56.45          9.598         0.1513         -0.655          1.227         0.5674          91.89          82.02
    0.1314              -14.76          21.13          12.07          56.45          9.595         0.1491        -0.6337          1.232         0.5527          91.89          82.03
    0.1577              -14.76          21.13          12.08          56.45          9.591         0.1468         -0.611          1.238         0.5371          91.89          82.03
     0.184              -14.76          21.12          12.09          56.45          9.587         0.1443        -0.5866          1.243         0.5204           91.9          82.04
    0.2103              -14.76          21.12          12.11          56.45          9.583         0.1416        -0.5606          1.249         0.5025           91.9          82.04
    0.2365              -14.76          21.12          12.12          56.44          9.578         0.1387        -0.5326          1.256         0.4833           91.9          82.05
    0.2628              -14.76          21.12          12.14          56.44          9.573         0.1356        -0.5026          1.263         0.4627           91.9          82.06
    0.2891              -14.76          21.12          12.15          56.44          9.567         0.1322        -0.4703          1.271         0.4405           91.9          82.07
    0.3154              -14.76          21.11          12.17          56.44          9.562         0.1286        -0.4355          1.279         0.4166           91.9          82.07
    0.3417              -14.76          21.11          12.19          56.44          9.555         0.1247        -0.3978          1.288         0.3907          91.91          82.08
     0.368              -14.76          21.11          12.21          56.43          9.549         0.1205        -0.3571          1.298         0.3628          91.91          82.09
    0.3942              -14.75          21.11          12.24          56.43          9.541          0.116         -0.313          1.308         0.3324          91.91           82.1
    0.4205              -14.75           21.1          12.26          56.43          9.533          0.111         -0.265          1.319         0.2995          91.91          82.11
    0.4468              -14.75           21.1          12.29          56.43          9.524         0.1056        -0.2127          1.332         0.2636          91.91          82.13
    0.4731              -14.75          21.09          12.32          56.42          9.515        0.09971        -0.1556          1.345         0.2244          91.92          82.14
    0.4994              -14.75          21.09          12.35          56.42          9.504        0.09324       -0.09313           1.36         0.1815          91.92          82.16
    0.5257              -14.75          21.08          12.39          56.42          9.493        0.08615       -0.02452          1.376         0.1343          91.92          82.17
    0.5519              -14.74          21.08          12.42          56.41           9.48        0.07834        0.05103          1.394        0.08245          91.93          82.19
    0.5782              -14.74          21.07          12.47          56.41          9.466        0.06972         0.1344          1.414        0.02516          91.93          82.21
    0.6045              -14.74          21.07          12.52           56.4          9.451        0.06016         0.2269          1.436       -0.03831          91.94          82.23
    0.6308              -14.74          21.06          12.57           56.4          9.434        0.04954         0.3296           1.46        -0.1089          91.94          82.26
    0.6571              -14.73          21.05          12.63          56.39          9.415        0.03769         0.4443          1.487        -0.1876          91.95          82.28
    0.6834              -14.73          21.04          12.69          56.38          9.393        0.02441         0.5727          1.517        -0.2758          91.95          82.31
    0.7096              -14.73          21.03          12.77          56.37          9.369       0.009476         0.7172          1.552        -0.3751          91.96          82.35
    0.7359              -14.72          21.02          12.85          56.36          9.342      -0.007401         0.8805           1.59        -0.4872          91.97          82.39
    0.7622              -14.72          21.01          12.95          56.35          9.311       -0.02656          1.066          1.634        -0.6145          91.98          82.43
    0.7885              -14.71          20.99          13.06          56.34          9.275       -0.04844          1.277          1.684        -0.7598          91.99          82.48
    0.8148              -14.71          20.98          13.19          56.33          9.235       -0.07354           1.52          1.741        -0.9266           92.0          82.54
